<svg id="svg-canvas">
  <g
     inkscape:label="Layer 1"
     inkscape:groupmode="layer"
     id="layer1">
    <g
       style="font-size:40px;font-style:normal;font-weight:normal;line-height:125%;letter-spacing:0px;word-spacing:0px;fill:#000000;fill-opacity:1;stroke:none;font-family:Sans"
       id="flowRoot2985">
      <path class="title" fill-opacity="0" stroke="#000" stroke-width="1.5"
         d="m 37.007812,59.081668 0.210938,0 14.800781,-39.375 10.898438,0 0,51.1875 -8.542969,0 0,-36.773437 -0.210938,-0.03516 -14.097656,36.808594 -5.871094,0 -14.34375,-37.511719 -0.210937,0.07031 0,37.441406 -8.542969,0 0,-51.1875 11.214844,0 z"
         style="font-size:72px;font-variant:normal;font-stretch:normal;font-family:Roboto Lt;-inkscape-font-specification:Roboto Lt"
         id="path2994" />
      <path class="title" fill-opacity="0" stroke="#000" stroke-width="1.5"
         d="m 100.32422,58.941043 -18.140626,0 -3.9375,11.953125 -8.824219,0 17.859375,-51.1875 8.121094,0 17.648436,51.1875 -8.82422,0 z m -15.785158,-7.136719 13.464844,0 -6.574219,-20.179687 -0.210937,0 z"
         style="font-size:72px;font-variant:normal;font-stretch:normal;font-family:Roboto Lt;-inkscape-font-specification:Roboto Lt"
         id="path2996" />
    </g>
  </g>
</svg>

<svg gid="svg-canvas">

    <path class="title" fill-opacity="0" stroke="#000" stroke-width="1.5"
       style="fill:none;stroke:#000000;stroke-width:1px;stroke-linecap:butt;stroke-linejoin:miter;stroke-opacity:1"
       d="m 52.857143,112.36218 c 1.904762,0.47619 3.78903,1.81362 5.714286,1.42857 1.044116,-0.20882 0.789694,-2.0053 1.428571,-2.85714 0.808122,-1.0775 2.110034,-1.73648 2.857143,-2.85714 0.264143,-0.39622 -0.150585,-0.97682 0,-1.42857 0.336717,-1.01016 0.952381,-1.90477 1.428571,-2.85715 0.476191,-0.95238 1.033117,-1.8685 1.428572,-2.85714 0.559257,-1.398143 0.755136,-2.938844 1.428571,-4.285714 0.301169,-0.602338 1.2965,-0.768214 1.428572,-1.428571 0.373554,-1.867773 0,-3.809524 0,-5.714286 0,-0.952381 -0.230987,-1.933197 0,-2.857143 0.25825,-1.033002 1.219748,-1.813026 1.428571,-2.857142 0.301711,-1.508556 0,-7.93401 0,-10 0,-6.190477 0,-12.380953 0,-18.571429 0,-5.580643 -0.425918,-0.150818 1.428571,-5.714286 0.30117,-0.903508 0,-1.904762 0,-2.857143 0,-0.536683 -0.03565,-7.107205 0,-7.142857 0.336718,-0.336717 1.215613,0.425918 1.428572,0 0.425918,-0.851835 -0.425918,-2.005307 0,-2.857143 0.212959,-0.425917 1.091854,0.336718 1.428571,0 0.336718,-0.336717 -0.336717,-1.091854 0,-1.428571 0.336718,-0.336718 0.952381,0 1.428572,0 0.952381,0 2.005307,-0.425918 2.857143,0 0.425917,0.212959 -0.336718,1.091854 0,1.428571 10.047513,10.047514 1.529203,-2.555245 4.285714,5.714286 0.657685,1.973056 3.235587,1.456974 4.285714,2.857143 0.903508,1.204677 0.65382,2.994462 1.428572,4.285714 0.692959,1.154932 2.254804,1.652466 2.857142,2.857143 0.425918,0.851836 -0.301169,1.953635 0,2.857143 2.763491,8.290473 1.79148,3.34102 5.714286,8.571429 1.435823,1.914431 2.033979,5.084948 2.857143,7.142857 0.39545,0.988636 1.03312,1.868506 1.42857,2.857143 0.55926,1.398143 0.65382,2.994461 1.42857,4.285714 0.69296,1.154931 2.25481,1.652465 2.85715,2.857143 0.42591,0.851835 -0.42592,2.005307 0,2.857143 0.60233,1.204677 2.2548,1.652465 2.85714,2.857142 0.87805,1.756104 0.41842,4.030699 1.42857,5.714286 0.54783,0.913054 1.97118,0.83793 2.85714,1.428572 3.55348,2.368987 0.16413,0.328257 1.42857,2.857142 0.30117,0.602339 1.12741,0.826233 1.42858,1.428572 0.42591,0.851835 -0.67344,2.183712 0,2.857142 0.33671,0.33672 1.21561,0.42592 1.42857,0 0.42591,-0.85183 0,-1.904761 0,-2.857142 0,-2.380953 0,-4.761905 0,-7.142857 0,-1.428572 -0.53056,-2.959319 0,-4.285715 0.50021,-1.250537 2.2548,-1.652465 2.85714,-2.857142 0.42592,-0.851836 -0.23099,-1.933198 0,-2.857143 0.25825,-1.033003 1.03312,-1.868507 1.42857,-2.857143 0.55926,-1.398144 0.86932,-2.887571 1.42857,-4.285714 0.79091,-1.977274 1.76148,-3.888179 2.85715,-5.714286 0.88335,-1.472255 2.21949,-2.691586 2.85714,-4.285714 0.3537,-0.884264 -0.42592,-2.005308 0,-2.857143 1.06479,-2.129589 3.10443,-3.64704 4.28571,-5.714286 0.74711,-1.307441 0.65382,-2.994462 1.42857,-4.285714 9.47595,-9.47595 -1.34687,2.69374 2.85715,-5.714286 0.60234,-1.204677 2.01576,-1.805414 2.85714,-2.857143 1.07256,-1.340696 2.08931,-2.750046 2.85714,-4.285714 0.21296,-0.425918 -0.15058,-0.976818 0,-1.428572 3.44925,-10.347737 -0.41186,2.252297 2.85715,-4.285714 0.21295,-0.425918 -0.33672,-1.091854 0,-1.428571 0.33671,-0.336718 1.09185,0.336717 1.42857,0 2.95576,-2.955765 -4.5168,0.115543 1.42857,-2.857143 0.22857,-0.114286 4.22857,-0.114286 4.28571,0 0.42592,0.851835 -0.30117,1.953635 0,2.857143 0.21296,0.638876 1.05502,0.868239 1.42857,1.428571 0.59065,0.885962 1.03312,1.868506 1.42858,2.857143 1.11851,2.796287 1.51027,5.877688 2.85714,8.571429 0.76783,1.535668 2.08931,2.750046 2.85714,4.285714 1.14682,2.293637 1.81566,4.799511 2.85714,7.142857 0.86491,1.946043 2.01826,3.756885 2.85715,5.714286 2.31589,5.403743 0.94058,4.720628 2.85714,11.428571 0.29252,1.023825 1.03312,1.868506 1.42857,2.857143 0.55926,1.398143 0.95238,2.857143 1.42857,4.285714 0.47619,1.428572 1.13325,2.809111 1.42857,4.285715 0.37356,1.867772 -0.46197,3.866395 0,5.714285 0.25825,1.033002 1.03312,1.868506 1.42858,2.857143 0.55925,1.398143 0.86931,2.887571 1.42857,4.285714 0.39545,0.988637 1.09185,1.846991 1.42857,2.857143 0.15058,0.451754 0,0.952381 0,1.428571 0,0.95238 -0.30117,1.95364 0,2.85714 0.21296,0.63888 1.1274,0.82624 1.42857,1.42857 2.10201,4.20402 -3.3094,-1.88083 1.42857,2.85715"
       id="path2998"
       inkscape:connector-curvature="0" />
    <path class="title" fill-opacity="0" stroke="#000" stroke-width="1.5"
       style="fill:none;stroke:#000000;stroke-width:1px;stroke-linecap:butt;stroke-linejoin:miter;stroke-opacity:1"
       d="m 222.85714,116.6479 c -0.47619,-1.90477 -1.04352,-3.78903 -1.42857,-5.71429 -0.29675,-1.48377 0,-6.34817 0,-7.14286 0,-3.80952 0,-7.619044 0,-11.428568 0,-1.428571 0,-2.857143 0,-4.285714 0,-1.904762 -0.56016,-3.893754 0,-5.714286 6.81811,-22.158838 2.27597,-6.32921 10,-17.142857 1.2378,-1.732918 1.67586,-3.942361 2.85714,-5.714286 0.74711,-1.120663 2.07429,-1.761149 2.85715,-2.857143 1.61389,-2.259448 2.4787,-5.034672 4.28571,-7.142857 1.11736,-1.30359 3.07166,-1.64309 4.28572,-2.857143 1.21405,-1.214052 1.82698,-2.912171 2.85714,-4.285714 1.59486,-2.126483 4.24038,-3.503433 5.71428,-5.714286 0.26415,-0.396214 -0.26414,-1.032357 0,-1.428571 0.74711,-1.120664 2.11004,-1.736479 2.85715,-2.857143 0.26414,-0.396214 -0.33672,-1.091854 0,-1.428571 0.33671,-0.336718 0.95238,0 1.42857,0 0.47619,0 1.18357,-0.40833 1.42857,0 6.31657,10.527608 0.34318,3.543511 4.28571,11.428571 0.76784,1.535668 2.08931,2.750046 2.85715,4.285714 3.2272,6.454411 3.99106,13.107105 5.71428,20 0.8623,3.449198 1.99485,7.979374 2.85715,11.428572 0.47619,1.904762 1.1509,3.770635 1.42857,5.714286 0.20203,1.414213 0,2.857142 0,4.285714 0,1.428571 0,2.857143 0,4.285714 0,0.952381 -0.15657,1.91772 0,2.857143 0.32278,1.93667 1.04352,3.78903 1.42857,5.714285 0.0934,0.46694 0,0.95238 0,1.42857 0,1.42857 -0.34648,2.8998 0,4.28572 0.16333,0.65332 1.1274,0.82623 1.42857,1.42857 0.21296,0.42592 -0.21296,1.00265 0,1.42857 0.60234,1.20468 2.2548,1.65246 2.85714,2.85714 0.21296,0.42592 0,0.95238 0,1.42857 0,0.47619 0,0.95238 0,1.42857"
       id="path3000"
       inkscape:connector-curvature="0" />
    <path class="title" fill-opacity="0" stroke="#000" stroke-width="1.5"
       style="fill:none;stroke:#000000;stroke-width:1px;stroke-linecap:butt;stroke-linejoin:miter;stroke-opacity:1"
       d="m 227.14286,76.647896 c 1.90476,-0.47619 3.76606,-1.185043 5.71428,-1.428571 1.89006,-0.236257 3.80953,0 5.71429,0 1.42857,0 2.87658,-0.234856 4.28571,0 1.48536,0.24756 2.80911,1.133251 4.28572,1.428571 1.41764,0.283529 5.64193,0 7.14285,0 0.95239,0 1.90477,0 2.85715,0 0.95238,0 2.0053,0.425918 2.85714,0 0.42592,-0.212958 -0.42592,-1.215612 0,-1.428571 1.27775,-0.638877 2.85714,0 4.28571,0 3.33334,0 6.66667,0 10,0"
       id="path3002"
       inkscape:connector-curvature="0" />

</svg>
